# xmcd
#
# Track frame offsets:
#	150
#	13880
#	26184
#	41115
#	55374
#	70786
#	81389
#	96578
#	110947
#	125300
#	139610
#	161709
#	176025
#	188033
#	197384
#	217038
#
# Disc length: 3074 seconds
#
# Revision: 0
# Processed by: cddbd v1.5.2PL0 Copyright (c) Steve Scherf et al.
# Submitted via: EZCDAudioConverter 1.1.0.1
#
DISCID=f40c0010
DTITLE=Yared Dibaba - Mien Welt blifft Platt
DYEAR=2012
DGENRE=Platt
TTITLE0=Wat een nich in'n Kopp hett
TTITLE1=Mit mien horoskop stimmt wat nich
TTITLE2=Kaffee Togo
TTITLE3=Wat för een Gedööns
TTITLE4=Luftslangen
TTITLE5=Gesichtsbook
TTITLE6=Speed Dating
TTITLE7=Beurdeel een Book nich jümmers bi dat Deckblatt
TTITLE8=XXL - Kanada
TTITLE9=Hebbt ji dat wusst?
TTITLE10=Gau gau gau
TTITLE11=Ik fohr so gern Rad
TTITLE12=Witt in den Norden un Watt in den Süden
TTITLE13=Een Badedag, wat schall dat den?
TTITLE14=Dormals
TTITLE15=Ratzfatz Rente
EXTD=
EXTT0=
EXTT1=
EXTT2=
EXTT3=
EXTT4=
EXTT5=
EXTT6=
EXTT7=
EXTT8=
EXTT9=
EXTT10=
EXTT11=
EXTT12=
EXTT13=
EXTT14=
EXTT15=
PLAYORDER=
